REM DIRINDEX 1\4,1\2\5,1\2\6,1\2\7,1\3\8,1\3\9,1\3\10,1\3\11
REM DIRNAME folder01,folder02,folder03,folder04,folder05,folder06,folder07,folder08,folder09,folder10,folder11
TITLE ""
FILE "t_k_368-380.mp3" MP3
  TRACK 01 AUDIO
    TITLE "5:cjc108_1106"
    INDEX 01 00:00:00
  TRACK 02 AUDIO
    TITLE "0:"
    INDEX 01 00:01:09
  TRACK 03 AUDIO
    TITLE "6:cjc108_1107"
    INDEX 01 00:01:17
  TRACK 04 AUDIO
    TITLE "0:"
    INDEX 01 00:02:24
  TRACK 05 AUDIO
    TITLE "7:cjc108_1108"
    INDEX 01 00:02:43
  TRACK 06 AUDIO
    TITLE "0:"
    INDEX 01 00:07:27
  TRACK 07 AUDIO
    TITLE "5:cjc108_1109"
    INDEX 01 00:08:15
  TRACK 08 AUDIO
    TITLE "0:"
    INDEX 01 00:09:38
  TRACK 09 AUDIO
    TITLE "6:cjc108_1110"
    INDEX 01 00:09:61
  TRACK 10 AUDIO
    TITLE "0:"
    INDEX 01 00:12:63
  TRACK 11 AUDIO
    TITLE "7:cjc108_1111"
    INDEX 01 00:13:08
  TRACK 12 AUDIO
    TITLE "0:"
    INDEX 01 00:17:57
  TRACK 13 AUDIO
    TITLE "5:cjc108_1112"
    INDEX 01 00:18:33
  TRACK 14 AUDIO
    TITLE "0:"
    INDEX 01 00:19:60
  TRACK 15 AUDIO
    TITLE "6:cjc108_1113"
    INDEX 01 00:19:62
  TRACK 16 AUDIO
    TITLE "0:"
    INDEX 01 00:21:53
  TRACK 17 AUDIO
    TITLE "7:cjc108_1114"
    INDEX 01 00:21:68
  TRACK 18 AUDIO
    TITLE "0:"
    INDEX 01 00:28:06
  TRACK 19 AUDIO
    TITLE "5:cjc108_1115"
    INDEX 01 00:28:64
  TRACK 20 AUDIO
    TITLE "0:"
    INDEX 01 00:30:18
  TRACK 21 AUDIO
    TITLE "6:cjc108_1116"
    INDEX 01 00:30:24
  TRACK 22 AUDIO
    TITLE "0:"
    INDEX 01 00:32:48
  TRACK 23 AUDIO
    TITLE "7:cjc108_1117"
    INDEX 01 00:32:62
  TRACK 24 AUDIO
    TITLE "0:"
    INDEX 01 00:36:05
  TRACK 25 AUDIO
    TITLE "5:cjc108_1118"
    INDEX 01 00:36:72
  TRACK 26 AUDIO
    TITLE "0:"
    INDEX 01 00:38:12
  TRACK 27 AUDIO
    TITLE "6:cjc108_1119"
    INDEX 01 00:38:14
  TRACK 28 AUDIO
    TITLE "0:"
    INDEX 01 00:40:24
  TRACK 29 AUDIO
    TITLE "7:cjc108_1120"
    INDEX 01 00:40:36
  TRACK 30 AUDIO
    TITLE "0:"
    INDEX 01 00:45:63
  TRACK 31 AUDIO
    TITLE "5:cjc108_1121"
    INDEX 01 00:46:37
  TRACK 32 AUDIO
    TITLE "0:"
    INDEX 01 00:47:46
  TRACK 33 AUDIO
    TITLE "6:cjc108_1122"
    INDEX 01 00:47:62
  TRACK 34 AUDIO
    TITLE "0:"
    INDEX 01 00:49:45
  TRACK 35 AUDIO
    TITLE "7:cjc108_1123"
    INDEX 01 00:49:65
  TRACK 36 AUDIO
    TITLE "0:"
    INDEX 01 00:55:06
  TRACK 37 AUDIO
    TITLE "5:cjc108_1124"
    INDEX 01 00:56:00
  TRACK 38 AUDIO
    TITLE "0:"
    INDEX 01 00:57:13
  TRACK 39 AUDIO
    TITLE "6:cjc108_1125"
    INDEX 01 00:57:23
  TRACK 40 AUDIO
    TITLE "0:"
    INDEX 01 00:58:24
  TRACK 41 AUDIO
    TITLE "7:cjc108_1126"
    INDEX 01 00:58:62
  TRACK 42 AUDIO
    TITLE "0:"
    INDEX 01 01:04:00
  TRACK 43 AUDIO
    TITLE "5:cjc108_1127"
    INDEX 01 01:04:72
  TRACK 44 AUDIO
    TITLE "0:"
    INDEX 01 01:05:73
  TRACK 45 AUDIO
    TITLE "6:cjc108_1128"
    INDEX 01 01:06:12
  TRACK 46 AUDIO
    TITLE "0:"
    INDEX 01 01:08:07
  TRACK 47 AUDIO
    TITLE "7:cjc108_1129"
    INDEX 01 01:08:31
  TRACK 48 AUDIO
    TITLE "0:"
    INDEX 01 01:14:23
  TRACK 49 AUDIO
    TITLE "5:cjc108_1130"
    INDEX 01 01:15:27
  TRACK 50 AUDIO
    TITLE "0:"
    INDEX 01 01:16:48
  TRACK 51 AUDIO
    TITLE "6:cjc108_1131"
    INDEX 01 01:16:61
  TRACK 52 AUDIO
    TITLE "0:"
    INDEX 01 01:19:05
  TRACK 53 AUDIO
    TITLE "7:cjc108_1132"
    INDEX 01 01:19:21
  TRACK 54 AUDIO
    TITLE "0:"
    INDEX 01 01:25:51
  TRACK 55 AUDIO
    TITLE "5:cjc108_1133"
    INDEX 01 01:26:27
  TRACK 56 AUDIO
    TITLE "0:"
    INDEX 01 01:27:71
  TRACK 57 AUDIO
    TITLE "6:cjc108_1134"
    INDEX 01 01:28:06
  TRACK 58 AUDIO
    TITLE "0:"
    INDEX 01 01:30:11
  TRACK 59 AUDIO
    TITLE "7:cjc108_1135"
    INDEX 01 01:30:30
  TRACK 60 AUDIO
    TITLE "0:"
    INDEX 01 01:35:53
  TRACK 61 AUDIO
    TITLE "5:cjc108_1136"
    INDEX 01 01:36:31
  TRACK 62 AUDIO
    TITLE "0:"
    INDEX 01 01:37:56
  TRACK 63 AUDIO
    TITLE "6:cjc108_1137"
    INDEX 01 01:37:71
  TRACK 64 AUDIO
    TITLE "0:"
    INDEX 01 01:40:62
  TRACK 65 AUDIO
    TITLE "7:cjc108_1138"
    INDEX 01 01:41:05
  TRACK 66 AUDIO
    TITLE "0:"
    INDEX 01 01:46:00
  TRACK 67 AUDIO
    TITLE "5:cjc108_1139"
    INDEX 01 01:46:61
  TRACK 68 AUDIO
    TITLE "0:"
    INDEX 01 01:47:74
  TRACK 69 AUDIO
    TITLE "6:cjc108_1140"
    INDEX 01 01:48:11
  TRACK 70 AUDIO
    TITLE "0:"
    INDEX 01 01:50:70
  TRACK 71 AUDIO
    TITLE "7:cjc108_1141"
    INDEX 01 01:51:19
  TRACK 72 AUDIO
    TITLE "0:"
    INDEX 01 01:55:73
  TRACK 73 AUDIO
    TITLE "5:cjc108_1142"
    INDEX 01 01:56:65
  TRACK 74 AUDIO
    TITLE "0:"
    INDEX 01 01:58:21
  TRACK 75 AUDIO
    TITLE "6:cjc108_1143"
    INDEX 01 01:58:32
  TRACK 76 AUDIO
    TITLE "0:"
    INDEX 01 02:00:18
  TRACK 77 AUDIO
    TITLE "7:cjc108_1144"
    INDEX 01 02:00:41
  TRACK 78 AUDIO
    TITLE "0:"
    INDEX 01 02:05:33
